<svg width="69" height="57" viewBox="0 0 69 57" fill="none" xmlns="http://www.w3.org/2000/svg">
<path d="M0.000186506 45.4492V14.3992C0.000186506 13.7641 0.515124 13.2492 1.15019 13.2492H9.20019C9.20019 18.1793 11.8303 22.7352 16.1002 25.2005C20.37 27.6653 25.6303 27.6653 29.9002 25.2005C34.17 22.7352 36.8002 18.1793 36.8002 13.2492H46.0002C46.3051 13.2492 46.5978 13.3703 46.8134 13.586C47.029 13.8016 47.1502 14.0942 47.1502 14.3992V17.8492H46.0002C45.0853 17.8492 44.2074 18.2127 43.5606 18.8595C42.9138 19.5064 42.5502 20.3844 42.5502 21.2991V45.4491C42.5477 45.8419 42.618 46.232 42.7571 46.5991H24.0811C24.1273 46.2177 24.1505 45.8337 24.1499 45.4491C24.1499 42.1624 22.3962 39.1252 19.5499 37.4818C16.7037 35.8384 13.1962 35.8384 10.3499 37.4818C7.50372 39.1252 5.74994 42.1624 5.74994 45.4491C5.74943 45.8337 5.77253 46.2177 5.81874 46.5991H1.15C0.514937 46.5991 0 46.0842 0 45.4491L0.000186506 45.4492ZM53.4062 32.6036C53.5961 32.7315 53.8205 32.7997 54.05 32.7992H68.08L68.3213 32.7186C68.7412 32.5302 69.0082 32.1092 69 31.6492C69 28.5992 67.7884 25.6744 65.6316 23.5176C63.4748 21.3609 60.55 20.1492 57.5 20.1492H54.05C53.5982 20.1503 53.1885 20.4157 53.0037 20.8279C52.9359 20.9758 52.9005 21.1365 52.9 21.2992V31.6492C52.8995 31.8787 52.9677 32.1031 53.0956 32.293C53.187 32.408 53.2912 32.5122 53.4062 32.6036V32.6036ZM5.75019 54.6495H1.15019C0.515124 54.6495 0.000186506 55.1644 0.000186506 55.7995C0.000186506 56.4345 0.515124 56.9495 1.15019 56.9495H5.75019C6.38525 56.9495 6.90019 56.4345 6.90019 55.7995C6.90019 55.1644 6.38525 54.6495 5.75019 54.6495ZM11.5578 13.2494C11.5578 12.8701 11.5003 12.4907 11.5003 12.0994C11.5003 7.99073 13.692 4.19428 17.2502 2.14018C20.8085 0.0860851 25.1919 0.0860851 28.7502 2.14018C32.3085 4.19428 34.5002 7.99086 34.5002 12.0994C34.5002 12.4907 34.5002 12.8701 34.4427 13.2494C34.0597 17.066 31.7988 20.4406 28.415 22.2461C25.0313 24.0522 20.9693 24.0522 17.5856 22.2461C14.2018 20.4406 11.9409 17.066 11.5579 13.2494H11.5578ZM17.1353 13.0194L17.4459 13.2494L21.7354 16.4694C21.9345 16.6188 22.1764 16.6994 22.4254 16.6994C22.7673 16.7 23.0917 16.5485 23.311 16.2857L25.841 13.2494L29.061 9.38566C29.4676 8.89639 29.4003 8.17045 28.9116 7.76383C28.4223 7.35721 27.6964 7.42448 27.2897 7.91322L22.8392 13.2495L22.2411 13.9739L21.2754 13.2495L18.5154 11.1795C18.0071 10.7986 17.2863 10.9012 16.9054 11.4095C16.5244 11.9177 16.6271 12.6386 17.1354 13.0195L17.1353 13.0194ZM29.9003 54.6495H10.3503C9.71525 54.6495 9.20032 55.1644 9.20032 55.7995C9.20032 56.4345 9.71525 56.9495 10.3503 56.9495H29.9003C30.5354 56.9495 31.0503 56.4345 31.0503 55.7995C31.0503 55.1644 30.5354 54.6495 29.9003 54.6495ZM54.0503 35.0995C53.1355 35.0995 52.2575 34.736 51.6107 34.0891C50.964 33.4422 50.6004 32.5643 50.6004 31.6495V21.2995C50.5978 20.9068 50.6681 20.5166 50.8073 20.1495H46.0004C45.3653 20.1495 44.8504 20.6644 44.8504 21.2995V45.4495C44.8504 45.7545 44.9716 46.0471 45.1872 46.2627C45.4028 46.4784 45.6954 46.5995 46.0004 46.5995H46.0692C46.0225 46.2181 45.9994 45.8341 46.0004 45.4495C45.9973 43.896 46.3932 42.3671 47.1504 41.0108C48.4755 38.6152 50.7986 36.9349 53.4878 36.4251C56.1774 35.9158 58.9539 36.6305 61.0634 38.3745C63.173 40.1189 64.3958 42.7121 64.4005 45.4495C64.401 45.8341 64.3779 46.2181 64.3317 46.5995H65.7462C66.6092 46.5995 67.4367 46.2566 68.0472 45.6461C68.6576 45.0357 69.0006 44.2082 69.0006 43.3451V34.8927C68.6335 35.0318 68.2433 35.1021 67.8506 35.0996L54.0503 35.0995ZM55.2003 52.3495C56.8298 52.3479 58.406 51.7693 59.6498 50.7174C60.8938 49.6649 61.7249 48.2059 61.9965 46.5995C62.0663 46.2201 62.1012 45.835 62.1002 45.4495C62.1002 42.9841 60.7848 40.7062 58.6502 39.474C56.5155 38.2414 53.8848 38.2414 51.7502 39.474C49.6155 40.7062 48.3002 42.9841 48.3002 45.4495C48.2992 45.835 48.3341 46.2201 48.4039 46.5995C48.6755 48.2059 49.5067 49.6649 50.7506 50.7174C51.9945 51.7693 53.5706 52.3479 55.2001 52.3495H55.2003ZM42.5503 54.6495H34.5003C33.8653 54.6495 33.3503 55.1644 33.3503 55.7995C33.3503 56.4345 33.8653 56.9495 34.5003 56.9495H42.5503C43.1854 56.9495 43.7003 56.4345 43.7003 55.7995C43.7003 55.1644 43.1854 54.6495 42.5503 54.6495ZM67.8503 54.6495H47.1503C46.5153 54.6495 46.0003 55.1644 46.0003 55.7995C46.0003 56.4345 46.5153 56.9495 47.1503 56.9495H67.8503C68.4854 56.9495 69.0003 56.4345 69.0003 55.7995C69.0003 55.1644 68.4854 54.6495 67.8503 54.6495ZM14.9503 52.3495C16.5798 52.3479 18.156 51.7693 19.3998 50.7174C20.6438 49.6649 21.475 48.2059 21.7465 46.5995C21.8163 46.2201 21.8512 45.835 21.8502 45.4495C21.8502 42.9841 20.5349 40.7062 18.4002 39.474C16.2655 38.2414 13.6349 38.2414 11.5002 39.474C9.36553 40.7062 8.05019 42.9841 8.05019 45.4495C8.04917 45.835 8.08408 46.2201 8.1539 46.5995C8.42548 48.2059 9.25666 49.6649 10.5006 50.7174C11.7445 51.7693 13.3206 52.3479 14.9501 52.3495H14.9503Z" fill="#33A6FF"/>
</svg>
