<svg width="49" height="63" viewBox="0 0 49 63" fill="none" xmlns="http://www.w3.org/2000/svg">
<path d="M28.3903 16.6755C28.3903 16.0821 28.8714 15.6005 29.4654 15.6005C30.0588 15.6005 30.5404 16.0815 30.5404 16.6755C30.5404 17.269 30.0593 17.7506 29.4654 17.7506C28.8719 17.7506 28.3903 17.269 28.3903 16.6755ZM21.2557 51.6986L21.0396 51.5744L16.2296 53.8426L16.4591 54.2841C17.7554 56.7756 20.1693 58.5417 22.9247 59.0284C22.9514 59.033 22.9765 59.0417 23.0032 59.0464L23.5608 59.1398V52.4179L23.1634 52.3496C22.4405 52.2254 21.7809 52.0005 21.2557 51.6986ZM27.745 51.6991C27.2188 52.0005 26.5591 52.2253 25.8372 52.3496L25.4398 52.4179V59.1398L25.9974 59.0463C26.0241 59.0417 26.0492 59.033 26.0759 59.0284C28.8318 58.5417 31.2447 56.7756 32.541 54.2841L32.771 53.8425L27.961 51.5749L27.745 51.6991ZM24.2267 21.2038H25.2006C25.5055 21.2038 25.7525 20.9563 25.7525 20.6519C25.7525 20.3469 25.505 20.1 25.2006 20.1H24.3519V18.6774C24.3519 18.3724 24.1045 18.1255 23.8 18.1255C23.4951 18.1255 23.2481 18.3729 23.2481 18.6774V20.2247C23.2481 20.7648 23.6871 21.2038 24.2267 21.2038ZM48.257 46.6168C47.8381 47.8243 46.7949 48.7068 45.535 48.9189L38.3943 50.1233C38.0518 50.5037 37.5985 50.782 37.0708 50.9047C36.9558 52.7447 36.4557 54.481 35.6323 56.0253V58.2914C35.6323 58.698 35.3027 59.0276 34.8961 59.0276H33.4129C31.1293 61.3111 27.9772 62.7256 24.5005 62.7256C21.0238 62.7256 17.8711 61.3111 15.5875 59.0276H14.1044C13.6977 59.0276 13.3681 58.698 13.3681 58.2914V56.0253C12.5447 54.481 12.0447 52.7447 11.9302 50.9047C11.4019 50.7815 10.9486 50.5037 10.6062 50.1233L3.46592 48.9189C2.20606 48.7069 1.1629 47.8243 0.744434 46.6168C0.325505 45.4098 0.59914 44.0709 1.45703 43.1242L12.4631 30.9809C13.2199 30.1461 14.2872 29.7754 15.3298 29.8576L17.4604 29.8324L18.2382 28.7214C18.538 28.2938 19.1279 28.1967 19.6424 28.4462V26.9975C17.4835 25.7253 16.1775 23.6528 15.3946 21.1602C15.2996 21.1777 15.2026 21.1864 15.1051 21.1864C14.7139 21.1864 14.3047 21.0478 13.9268 20.7788C13.4217 20.4189 13.0002 19.8536 12.7409 19.1882C12.4816 18.5218 12.4098 17.8211 12.5386 17.2138C12.6834 16.5325 13.0782 16.0212 13.6209 15.8096C13.6701 15.7901 13.7241 15.7875 13.7749 15.7737C13.4273 14.1324 12.2182 7.19742 15.5548 3.08778C17.2577 0.990048 19.8513 -0.0177459 23.249 0.101854C23.3384 0.104934 23.4246 0.124957 23.5042 0.159354C27.8295 -0.354032 31.0732 0.57572 33.1555 2.91988C36.7493 6.96643 35.6521 13.8808 35.263 15.7813C35.302 15.7932 35.3436 15.7942 35.3821 15.8096C36.451 16.2259 36.837 17.7102 36.262 19.1877C36.0028 19.8536 35.5813 20.4188 35.0756 20.7786C34.6977 21.0477 34.2886 21.1863 33.8968 21.1863C33.8008 21.1863 33.7059 21.1775 33.6124 21.1606C32.83 23.6634 31.5224 25.7426 29.36 27.0132V28.4461C29.874 28.1966 30.4649 28.2926 30.7647 28.7223L31.542 29.8322L33.6716 29.8569C34.7143 29.7742 35.7826 30.1444 36.5399 30.9802L47.5454 43.1235C48.4023 44.0707 48.6749 45.4099 48.257 46.6168ZM33.9103 20.0814C34.1162 20.0783 34.3179 19.9633 34.4345 19.8796C34.762 19.6465 35.0531 19.2486 35.2323 18.7876C35.5912 17.8681 35.3956 16.9999 34.9807 16.8388C34.9237 16.8167 34.8657 16.807 34.8077 16.807C34.686 16.807 34.568 16.8491 34.4648 16.8999C34.3385 18.0006 34.1598 19.0679 33.9103 20.0814ZM15.0937 20.0808C14.8442 19.0705 14.665 18.0068 14.5387 16.9091C14.4165 16.8495 14.2974 16.8085 14.1911 16.8085C14.1306 16.8085 14.0731 16.8187 14.0212 16.8387C13.7609 16.9399 13.6567 17.2613 13.6182 17.444C13.535 17.8373 13.59 18.3271 13.7691 18.7882C13.9488 19.2487 14.2394 19.6465 14.5669 19.8802C14.684 19.9638 14.8878 20.0788 15.0937 20.0808ZM29.3589 29.7285L29.1972 29.8327L28.807 30.0853L27.2822 31.071L26.1265 31.8185L25.1532 32.4479C25.1372 32.4582 25.1249 32.4685 25.1162 32.4777L26.7704 34.8404C26.7991 34.8363 26.8438 34.8219 26.8838 34.7834L30.9802 30.9741C30.9833 30.972 30.9853 30.97 30.9874 30.9674L30.1926 29.8328L29.8928 29.4047C29.8718 29.4072 29.842 29.416 29.8086 29.4375L29.3589 29.7285ZM25.7401 30.7537L27.1642 29.8327L28.2552 29.1273V27.5615C27.193 27.9958 25.9619 28.2679 24.5285 28.3408C23.0715 28.2674 21.8219 27.9912 20.7459 27.5486V29.1268L21.8368 29.8322L23.261 30.7533L24.2056 31.3642L24.4469 31.5203C24.4664 31.5326 24.4818 31.549 24.5008 31.5629C24.5193 31.5495 24.5352 31.5331 24.5547 31.5203L24.796 31.3642L25.7401 30.7537ZM19.798 25.7641C20.0568 25.9453 20.335 26.1044 20.6231 26.2538C21.7058 26.816 22.9877 27.1605 24.529 27.2385C26.0733 27.1595 27.3557 26.8083 28.4374 26.2364C28.7064 26.0942 28.9698 25.9458 29.2131 25.7748C30.859 24.6197 31.9249 22.8136 32.6015 20.4951C32.679 20.2292 32.7555 19.9607 32.8228 19.6809C33.0019 18.9395 33.1488 18.1541 33.2638 17.3218C33.3084 16.9989 33.3449 16.6632 33.3808 16.3274C33.3978 16.1677 33.4173 16.0117 33.4327 15.8489L32.9578 15.1938C29.7717 13.4796 28.2089 10.75 27.5132 9.08346C25.7096 11.1457 22.7854 11.1072 22.6401 11.1052C22.3223 11.098 22.0492 10.8773 21.9758 10.5682C21.9573 10.4886 21.9522 10.408 21.9609 10.3305C20.2416 11.0051 18.6157 11.098 18.4934 11.1042C18.2588 11.1196 18.0268 11.0031 17.8912 10.8146C17.0277 11.2125 16.295 11.3712 15.9557 11.4287C15.7303 11.9785 15.5414 12.65 15.412 13.4581C15.4546 14.4597 15.5244 15.4157 15.6225 16.3279C15.6584 16.6642 15.6949 17.0005 15.7401 17.3239C15.8551 18.153 16.0024 18.936 16.1816 19.6753C16.2493 19.9551 16.3258 20.2236 16.4039 20.4901C17.08 22.8044 18.1485 24.6079 19.798 25.7641ZM18.0197 30.974L22.1155 34.7839C22.1566 34.8219 22.2018 34.8362 22.2305 34.8408L23.8842 32.4782C23.8754 32.4689 23.8631 32.4581 23.8472 32.4484L22.8738 31.819L21.7182 31.0715L20.1938 30.0857L19.8037 29.8332L19.6419 29.7289L19.1922 29.4378C19.1583 29.4158 19.128 29.4076 19.1075 29.405L18.8077 29.8337L18.0197 30.974ZM14.9984 43.3919L16.0781 43.5639C16.6551 43.6558 17.15 43.9397 17.5259 44.3324C19.1898 42.3282 21.6987 41.0494 24.5008 41.0494C27.3028 41.0494 29.8113 42.3282 31.4752 44.3324C31.851 43.9397 32.3459 43.6558 32.9225 43.5639L34.0027 43.3919C31.8895 40.4137 28.4221 38.4607 24.5008 38.4607C20.5795 38.4607 17.1115 40.4136 14.9984 43.3919ZM10.9271 43.087L12.0422 43.2749C12.4478 43.1213 12.8929 43.0572 13.3509 43.129L13.3688 43.1321V40.3932L10.9271 43.087ZM12.8549 49.953L14.9604 50.2878L15.0071 50.295C15.156 50.3186 15.3013 50.3119 15.443 50.2919C15.6099 50.2683 15.769 50.219 15.9153 50.143C16.055 50.0706 16.1828 49.9777 16.2927 49.8653L15.9292 49.8072L15.8003 49.7867L13.6913 49.4515C13.5589 49.4304 13.45 49.359 13.3679 49.2651C13.2637 49.146 13.2056 48.9884 13.2329 48.8195C13.2498 48.7142 13.3027 48.6269 13.3679 48.551C13.489 48.4108 13.6708 48.3271 13.8643 48.3615L15.5672 48.6326L16.5109 48.7825L16.6325 48.802L16.7357 48.8184L16.7927 48.4596L16.8261 48.2506L16.6254 48.2188L15.6776 48.0679L13.9557 47.7942C13.6543 47.747 13.4494 47.4636 13.4972 47.1622C13.5449 46.8619 13.8288 46.655 14.1292 46.7043L16.9605 47.1545L17.0006 47.1607L17.0324 46.9589L17.0627 46.768L17.0904 46.5924L17.0376 46.5842L16.708 46.5318L16.2151 46.4532L14.2195 46.136C13.9453 46.0928 13.761 45.8526 13.7641 45.5836C13.7646 45.5569 13.7564 45.5317 13.761 45.5045C13.7841 45.3613 13.8627 45.2427 13.969 45.1595C14.086 45.0676 14.2364 45.0204 14.393 45.0465L16.6437 45.4044L16.7598 45.4229L16.9939 45.4603C16.9569 45.3859 16.9163 45.313 16.8676 45.2458C16.693 45.0045 16.444 44.8191 16.1509 44.7185C16.0718 44.6913 15.9907 44.6672 15.905 44.6533L14.3525 44.4058L13.8427 44.3247L13.3694 44.2493L13.3488 44.2462L13.1784 44.219C13.1004 44.2066 13.0228 44.201 12.9463 44.201C12.2343 44.201 11.6049 44.72 11.4893 45.4449L11.0555 48.1721C10.9487 48.8426 11.3184 49.4766 11.9098 49.7436C12.0263 49.7965 12.149 49.8401 12.2815 49.8611L12.3816 49.8771L12.8549 49.953ZM36.1046 51.0769L35.6323 51.1518L34.1675 51.3849C34.031 51.407 33.8944 51.4172 33.7609 51.4172C33.6603 51.4172 33.5633 51.4018 33.4652 51.3905C33.4647 51.3957 33.4642 51.4003 33.4637 51.4059L33.3718 52.0461L28.9422 49.9576L28.8791 49.7594C28.5192 48.6351 26.6367 47.788 24.5013 47.788C22.3662 47.788 20.4841 48.6356 20.1236 49.7594L20.0599 49.9576L15.6309 52.0461L15.539 51.4059C15.5385 51.4003 15.538 51.3962 15.5375 51.3905C15.4394 51.4018 15.3424 51.4172 15.2418 51.4172C15.1078 51.4172 14.9717 51.407 14.8352 51.3849L13.37 51.1518L12.8971 51.0769C12.9675 51.9347 13.1231 52.7685 13.37 53.5638C14.0395 55.72 15.322 57.6068 17.0094 59.0272C19.0373 60.7342 21.65 61.7678 24.5019 61.7678C27.3537 61.7678 29.9664 60.7343 31.9938 59.0272C33.6819 57.6062 34.9643 55.7184 35.6337 53.5616C35.8786 52.7664 36.0338 51.9336 36.1046 51.0769ZM37.9457 48.172L37.5124 45.4459C37.4508 45.0563 37.2408 44.7149 36.9215 44.4833C36.6668 44.298 36.3665 44.2015 36.0574 44.2015C35.9799 44.2015 35.9014 44.2071 35.8233 44.22L35.6534 44.2472L35.6323 44.2503L35.1595 44.3252L34.6492 44.4063L33.0968 44.6533C33.011 44.6671 32.9304 44.6913 32.8508 44.7185C32.5577 44.8191 32.3087 45.0044 32.1342 45.2457C32.0854 45.313 32.0448 45.3859 32.0079 45.4603L32.242 45.4228L32.3575 45.4044L34.6077 45.0465C34.7642 45.0203 34.9136 45.066 35.0302 45.1559C35.1375 45.239 35.2171 45.3597 35.2396 45.5045C35.2438 45.5317 35.236 45.5568 35.2366 45.5835C35.2402 45.853 35.0558 46.0928 34.7817 46.1359L32.7861 46.4532L32.2932 46.5318L31.9631 46.5841L31.9102 46.5923L31.9385 46.7684L31.9688 46.9594L32.0006 47.1601L32.0401 47.154L32.5217 47.0775L34.8715 46.7037C35.1749 46.6534 35.4557 46.8603 35.5035 47.1617C35.5518 47.463 35.3469 47.7459 35.0455 47.7937L33.3236 48.0678L32.8497 48.1433L32.3753 48.2187L32.1746 48.2506L32.208 48.4595L32.265 48.8184L32.3682 48.802L32.4893 48.7824L32.9616 48.7075L33.4334 48.6325L35.1358 48.362C35.3314 48.3276 35.5121 48.4107 35.6328 48.5504C35.6985 48.6264 35.7509 48.7142 35.7678 48.8199C35.795 48.9883 35.737 49.1464 35.6328 49.2655C35.5506 49.359 35.4423 49.4309 35.3099 49.4519L33.5458 49.7322L33.1998 49.7872L33.071 49.8077L32.7085 49.8652C32.8184 49.9771 32.9462 50.0695 33.0853 50.1419C33.2316 50.2179 33.3908 50.2672 33.5577 50.2913C33.6993 50.3113 33.8446 50.318 33.993 50.2944L34.0392 50.2872L35.6317 50.0341L36.1446 49.9525L36.62 49.877L36.7201 49.8611C36.8526 49.84 36.9748 49.7964 37.0918 49.7435C37.6832 49.4771 38.0525 48.843 37.9457 48.172ZM38.0735 43.0869L35.6318 40.3932V43.1332L35.6498 43.1301C36.1021 43.0562 36.5498 43.1152 36.9646 43.2739L38.0735 43.0869ZM24.4996 24.8341C25.8057 24.8341 27.2016 24.5163 27.2016 23.6251C27.2016 23.3201 26.9542 23.0732 26.6497 23.0732C26.4033 23.0732 26.1949 23.2344 26.124 23.4572C25.9392 23.5666 25.3591 23.7309 24.5002 23.7309C23.6414 23.7309 23.0612 23.5666 22.8764 23.4572C22.8051 23.2344 22.5966 23.0732 22.3507 23.0732C22.0458 23.0732 21.7988 23.3207 21.7988 23.6251C21.7983 24.5163 23.194 24.8341 24.4996 24.8341ZM20.6096 16.6748C20.6096 16.0813 20.1285 15.5997 19.5345 15.5997C18.941 15.5997 18.4595 16.0808 18.4595 16.6748C18.4595 17.2683 18.9405 17.7498 19.5345 17.7498C20.1285 17.7498 20.6096 17.2683 20.6096 16.6748Z" fill="#33A6FF"/>
</svg>
