<svg width="61" height="62" viewBox="0 0 61 62" fill="none" xmlns="http://www.w3.org/2000/svg">
<path d="M30.919 0.937499C14.0117 0.70914 0.209004 14.5119 0.437364 31.4191C0.662832 47.6341 13.8658 60.837 30.0807 61.0625C46.9909 61.2937 60.7907 47.491 60.5595 30.5837C60.3369 14.3659 47.134 1.16297 30.919 0.937499ZM28.4923 28.7554L35.9429 20.2281C36.3466 19.7662 36.9171 19.4835 37.5292 19.4423C38.1412 19.4011 38.7445 19.6048 39.2064 20.0084C39.6683 20.412 39.951 20.9826 39.9922 21.5947C40.0334 22.2067 39.8298 22.81 39.4261 23.2719L31.9755 31.7993C31.7757 32.028 31.5327 32.2151 31.2605 32.3499C30.9884 32.4847 30.6923 32.5646 30.3893 32.585C30.0862 32.6054 29.7821 32.5659 29.4943 32.4688C29.2066 32.3717 28.9407 32.2188 28.712 32.0189C28.4833 31.8191 28.2962 31.5761 28.1614 31.304C28.0266 31.0318 27.9467 30.7357 27.9263 30.4327C27.9059 30.1296 27.9454 29.8255 28.0425 29.5378C28.1396 29.25 28.2925 28.9841 28.4923 28.7554ZM22.8758 41.8861C22.4422 42.3194 21.8542 42.5629 21.2412 42.5629C20.6281 42.5629 20.0402 42.3194 19.6065 41.8861L12.6763 34.9486C12.4616 34.7337 12.2914 34.4787 12.1753 34.1981C12.0592 33.9174 11.9995 33.6166 11.9996 33.3129C11.9997 33.0092 12.0597 32.7085 12.176 32.4279C12.2924 32.1474 12.4629 31.8925 12.6777 31.6779C12.8926 31.4632 13.1476 31.2929 13.4283 31.1768C13.7089 31.0607 14.0097 31.001 14.3134 31.0012C14.6171 31.0013 14.9178 31.0613 15.1984 31.1776C15.4789 31.294 15.7338 31.4644 15.9485 31.6793L22.886 38.6168C23.318 39.0518 23.5596 39.6405 23.5577 40.2535C23.5558 40.8666 23.3105 41.4538 22.8758 41.8861ZM48.429 23.2719L32.2588 41.7719C32.0505 42.0106 31.7953 42.204 31.5091 42.34C31.223 42.476 30.9119 42.5517 30.5953 42.5625H30.5172C30.2133 42.5625 29.9124 42.5027 29.6317 42.3864C29.351 42.2701 29.0959 42.0996 28.8811 41.8846L21.9523 34.9471C21.5188 34.5132 21.2753 33.9249 21.2756 33.3115C21.2759 32.6981 21.5198 32.1099 21.9537 31.6764C22.3877 31.2429 22.976 30.9995 23.5894 30.9997C24.2028 31 24.7909 31.2439 25.2245 31.6779L29.5315 35.9892C29.6435 36.1012 29.7773 36.189 29.9245 36.2472C30.0718 36.3053 30.2295 36.3326 30.3878 36.3273C30.5461 36.3221 30.7016 36.2843 30.8447 36.2165C30.9878 36.1486 31.1154 36.0521 31.2196 35.9329L44.9501 20.2281C45.3537 19.7662 45.9243 19.4835 46.5364 19.4423C47.1484 19.4011 47.7517 19.6048 48.2136 20.0084C48.6755 20.412 48.9582 20.9826 48.9994 21.5947C49.0406 22.2067 48.8369 22.81 48.4333 23.2719H48.429Z" fill="#33A6FF"/>
</svg>
