<svg width="65" height="61" viewBox="0 0 65 61" fill="none" xmlns="http://www.w3.org/2000/svg">
<path d="M2.36523 10.7304H57.9375V3.14543C57.9375 2.80325 57.8616 2.46533 57.7152 2.15604C57.5689 1.84674 57.3557 1.57379 57.091 1.35686C56.8264 1.13993 56.5169 0.984433 56.1849 0.901579C55.8529 0.818724 55.5067 0.81058 55.1712 0.877733L1.98367 9.61898C1.58762 9.69782 1.21912 9.879 0.914837 10.1445C0.610554 10.41 0.381097 10.7505 0.249297 11.1322C0.922916 10.8659 1.64088 10.7296 2.36523 10.7304ZM62.4902 14.1992H2.36523C1.75192 14.1992 1.16373 14.4428 0.73005 14.8765C0.296372 15.3102 0.0527344 15.8984 0.0527344 16.5117V58.1367C0.0527344 58.75 0.296372 59.3382 0.73005 59.7719C1.16373 60.2055 1.75192 60.4492 2.36523 60.4492H62.4902C63.1035 60.4492 63.6917 60.2055 64.1254 59.7719C64.5591 59.3382 64.8027 58.75 64.8027 58.1367V16.5117C64.8027 15.8984 64.5591 15.3102 64.1254 14.8765C63.6917 14.4428 63.1035 14.1992 62.4902 14.1992ZM48.6875 41.9492C47.7728 41.9492 46.8786 41.6779 46.118 41.1697C45.3574 40.6615 44.7646 39.9392 44.4146 39.0941C44.0645 38.249 43.9729 37.3191 44.1514 36.4219C44.3298 35.5247 44.7703 34.7006 45.4171 34.0538C46.0639 33.407 46.888 32.9665 47.7852 32.788C48.6824 32.6096 49.6123 32.7012 50.4574 33.0512C51.3025 33.4013 52.0248 33.9941 52.533 34.7547C53.0412 35.5152 53.3125 36.4094 53.3125 37.3242C53.3125 38.5508 52.8252 39.7272 51.9579 40.5946C51.0905 41.4619 49.9141 41.9492 48.6875 41.9492Z" fill="#33A6FF"/>
</svg>
