<svg width="58" height="57" viewBox="0 0 58 57" fill="none" xmlns="http://www.w3.org/2000/svg">
<path d="M24.3183 6.29375H14.2275V0.911838C14.2275 0.540601 14.5286 0.239146 14.9002 0.239146H24.3183L24.3183 6.29375ZM29.0275 7.63918C29.1849 7.63918 29.3377 7.6941 29.4587 7.79528L32.391 10.2391V0.239136H25.664V10.2391L28.5968 7.79528H28.5964C28.7173 7.6941 28.8701 7.63918 29.0275 7.63918H29.0275ZM43.8275 0.911838C43.8275 0.733445 43.7565 0.562484 43.6306 0.436124C43.5042 0.310176 43.3332 0.239146 43.1549 0.239146H33.7368V6.29372H43.8275L43.8275 0.911838ZM14.2275 25.1299V7.63844H24.3183V11.675C24.3183 11.936 24.4694 12.1735 24.7061 12.2841C24.9423 12.3952 25.2214 12.3589 25.4221 12.1916L29.0275 9.18702L32.6329 12.1916C32.8336 12.3589 33.1127 12.3952 33.3489 12.2841C33.5855 12.1735 33.7367 11.936 33.7367 11.675V7.63844H43.8274V25.1299C43.8274 25.3083 43.7564 25.4793 43.6304 25.6052C43.5041 25.7316 43.3331 25.8026 43.1547 25.8026H14.9005C14.5288 25.8026 14.2278 25.5012 14.2278 25.1299H14.2275ZM16.9183 20.4207C16.9183 20.5991 16.9893 20.77 17.1157 20.8964C17.2416 21.0223 17.4126 21.0934 17.591 21.0934H27.0095C27.3807 21.0934 27.6822 20.7923 27.6822 20.4207C27.6822 20.049 27.3807 19.748 27.0095 19.748H17.591C17.2197 19.748 16.9183 20.049 16.9183 20.4207ZM16.9183 22.4388C16.9183 22.6172 16.9893 22.7885 17.1157 22.9145C17.2416 23.0408 17.4126 23.1114 17.591 23.1114H21.6276C21.9992 23.1114 22.3003 22.8104 22.3003 22.4388C22.3003 22.0671 21.9992 21.7661 21.6276 21.7661H17.591C17.2197 21.7661 16.9183 22.0671 16.9183 22.4388ZM7.50021 56.0749C7.50144 56.4458 7.80207 56.7464 8.1729 56.7476H24.3186C24.6899 56.7464 24.9905 56.4458 24.9913 56.0749V52.0383H7.5009L7.50021 56.0749ZM25.664 45.3111H6.82786C6.45621 45.3111 6.15517 45.6126 6.15517 45.9838V50.0204C6.15517 50.1988 6.2262 50.3697 6.35215 50.4961C6.47851 50.6221 6.64947 50.6931 6.82786 50.6931H25.664C25.8424 50.6931 26.0134 50.6221 26.1393 50.4961C26.2657 50.3697 26.3367 50.1988 26.3367 50.0204V45.9838C26.3367 45.8054 26.2657 45.6344 26.1393 45.5081C26.0134 45.3821 25.8424 45.3111 25.664 45.3111ZM8.84595 43.9657H23.6459V39.9767C23.6505 38.9054 23.2239 37.8773 22.4621 37.1241L11.5037 26.1657C10.8434 25.5013 9.94485 25.1284 9.0079 25.13C8.07216 25.1238 7.17397 25.4976 6.51907 26.1657C5.85671 26.8264 5.48464 27.7229 5.48464 28.6582C5.48464 29.5936 5.8567 30.4905 6.51907 31.1508L14.7598 39.3986C14.8858 39.5241 14.9564 39.6947 14.9564 39.8727C14.9564 40.0507 14.8858 40.2212 14.7598 40.3471C14.4972 40.6073 14.0739 40.6073 13.8113 40.3471L5.56345 32.0993C4.65248 31.1846 4.14085 29.9462 4.14085 28.6549C4.14085 27.3636 4.65248 26.1252 5.56345 25.2106C5.93056 24.8381 6.35836 24.5313 6.82832 24.3025V13.0207C6.82832 11.819 6.18701 10.7086 5.1464 10.1077C4.10577 9.50686 2.82354 9.50686 1.783 10.1077C0.742367 10.7085 0.101083 11.819 0.101083 13.0207V32.7586C0.0990185 33.6514 0.452498 34.5087 1.08349 35.14L8.84651 42.8968L8.84595 43.9657ZM33.064 56.0752C33.0649 56.4461 33.3655 56.7467 33.7367 56.7479H49.8825C50.2533 56.7467 50.5539 56.4461 50.5552 56.0752V52.0387H33.0647L33.064 56.0752ZM51.2279 45.3114H32.3917C32.0205 45.3114 31.719 45.6129 31.719 45.9841V50.0207C31.719 50.1991 31.79 50.3701 31.9164 50.4964C32.0423 50.6224 32.2133 50.6934 32.3917 50.6934H51.2279C51.4062 50.6934 51.5772 50.6224 51.7036 50.4964C51.8295 50.3701 51.9005 50.1991 51.9005 50.0207V45.9841C51.9005 45.8057 51.8295 45.6348 51.7036 45.5084C51.5772 45.3825 51.4062 45.3114 51.2279 45.3114ZM54.5913 9.65716C53.6993 9.65757 52.8441 10.0123 52.2135 10.6429C51.5825 11.2734 51.2282 12.1291 51.2278 13.021V24.3028C51.6978 24.5316 52.1256 24.8384 52.4927 25.2109C53.4037 26.1256 53.9153 27.364 53.9153 28.6553C53.9153 29.9466 53.4037 31.185 52.4927 32.0997L44.2449 40.3475C43.9822 40.6077 43.559 40.6077 43.2963 40.3475C43.1704 40.2215 43.0998 40.051 43.0998 39.873C43.0998 39.695 43.1704 39.5245 43.2963 39.399L51.5371 31.1511C52.1994 30.4908 52.5715 29.594 52.5715 28.6586C52.5715 27.7232 52.1995 26.8268 51.5371 26.1661C50.8822 25.4979 49.984 25.1242 49.0482 25.1304C48.1113 25.1287 47.2127 25.5016 46.5524 26.1661L35.5941 37.1244C34.8322 37.8776 34.4057 38.9059 34.4102 39.977V43.966H49.2102V42.8965L56.9732 35.1397C57.6042 34.5083 57.9577 33.6511 57.9556 32.7583V13.0204C57.9552 12.1284 57.6009 11.2728 56.9699 10.6422C56.3394 10.0117 55.4841 9.65695 54.5918 9.65653L54.5913 9.65716ZM6.8951 25.8431C6.88849 25.8431 6.88147 25.8497 6.87486 25.8497C6.82118 25.8968 6.76709 25.9438 6.71341 25.9843L6.8951 25.8431Z" fill="#33A6FF"/>
</svg>
